<svg id="Layer_1" data-name="Layer 1" xmlns="http://www.w3.org/2000/svg" viewBox="0 0 112.79 123.91"><defs><style>.cls-1,.cls-2,.cls-3,.cls-4,.cls-5{fill:#fff;stroke:#323232;stroke-miterlimit:10;}.cls-1{stroke-width:0.84px;}.cls-2{stroke-width:0.77px;}.cls-3{stroke-width:0.72px;}.cls-4{stroke-width:0.66px;}.cls-5{stroke-width:0.66px;}.cls-6{font-size:21.01px;fill:#1a1a1a;font-family:Futura-Medium, Futura;font-weight:500;}.cls-7{letter-spacing:0.01em;}</style></defs><title>Untitled-1</title><path class="cls-1" d="M119.32,51.21c0,24.83-24.52,44.95-54.76,44.95S16.44,75.13,9.8,51.21C-2.69,6.26,35.59-2.43,64.56,6.26,96.47,15.84,119.32,26.38,119.32,51.21Z" transform="translate(-6.95 -2.83)"/><path class="cls-2" d="M117.36,51.68c0,22.71-22.44,41.13-50.11,41.13S21.63,73.94,17.14,51.68C8.9,10.81,38.93,5.23,67.25,10.54,97.85,16.28,117.36,29,117.36,51.68Z" transform="translate(-6.95 -2.83)"/><path class="cls-3" d="M115.68,51.56c0,21.22-21,40.42-46.8,38.42s-42.29-16.9-46.8-38.42c-5.89-28.07,21.34-41,46.8-38.41C95.74,15.85,115.68,30.35,115.68,51.56Z" transform="translate(-6.95 -2.83)"/><path class="cls-4" d="M114,52.15c0,19.51-19.26,35.32-43,35.32S31.48,72.26,30.9,51.52C30.17,25.15,47.12,18.12,71,16.83,96.42,15.46,114,32.64,114,52.15Z" transform="translate(-6.95 -2.83)"/><circle class="cls-5" cx="74.03" cy="48.83" r="31.29"/><text class="cls-6" transform="translate(9.43 117.84)">O<tspan class="cls-7" x="18.78" y="0">p</tspan><tspan x="31.56" y="0">timize.</tspan></text></svg>